<svg xmlns="http://www.w3.org/2000/svg" viewBox="0 0 512 512">
  <rect width="512" height="512" rx="104" fill="#0b3535"/>
  <g transform="translate(124 90) scale(0.6014)" fill="#ffffff">
    <path d="M193.66,232.51h-55.02v-95.85h-81.5v95.85H1.8V2.97h55.34v91.12h81.51V2.97h55.02L193.66,232.51L193.66,232.51z"/>
    <path d="M88.04,467.56H58.08v81.19H2.75V319.21h90.33c27.22,0,48.5,6.04,63.85,18.1c15.34,12.09,23.02,29.14,23.02,51.18c0,15.96-3.23,29.19-9.7,39.69c-6.46,10.5-16.58,19.01-30.35,25.51l47.93,92.69v2.36h-59.28L88.04,467.56z M58.08,424.99h35c10.51,0,18.42-2.76,23.73-8.3c5.31-5.53,7.96-13.24,7.96-23.15s-2.68-17.67-8.04-23.31s-13.24-8.46-23.65-8.46h-35C58.08,361.77,58.08,424.99,58.08,424.99z"/>
    <path d="M422.72,451.32H335.7v54.86h102.79v42.57H280.36V319.21H438.8v42.72H335.7v48.4h87.02V451.32z"/>
    <path d="M422.72,135.08H335.7v54.86h102.79v42.57H280.36V2.97H438.8V45.7H335.7v48.4h87.02V135.08z"/>
  </g>
</svg>
