<?xml version="1.0" encoding="UTF-8"?>
<svg xmlns="http://www.w3.org/2000/svg" version="1.1" viewBox="0 0 548 544">
  <!-- Generator: Adobe Illustrator 30.2.1, SVG Export Plug-In . SVG Version: 2.1.1 Build 1)  -->
  <defs>
    <style>
      .st0 {
        fill: #0033ba;
      }
    </style>
  </defs>
  <g id="svg3598" image-rendering="optimizeQuality" shape-rendering="geometricPrecision" text-rendering="geometricPrecision">
    <g id="Ebene_x5F_1">
      <g id="_63430936">
        <path id="_24868928" class="st0" d="M541.22,537.78H6.78V121.4h534.44v416.38Z"/>
        <g id="g3594">
          <path id="_62230312" d="M481.56,4.61h59.66v23.47h-33.64v18.41h33.64v22.21h-33.64v40.63h-26.02V4.61Z"/>
          <path id="_24855208" d="M72.8,28.09h-19.05v81.25h-26.65V28.09H6.78V4.61h66.02v23.48Z"/>
          <path id="_63217712" d="M443.47,45.07c-.6,1.82-1.08,2.89-2.38,4.28-1.29,1.38-2.28,1.9-3.97,2.71-1.65.79-2.66,1.1-4.44,1.43h-10.15v-25.4h10.15c3.81.96,3.75.97,5.72,2.38,2.22,1.58,2.98,2.26,4.12,4.28.81,1.43,1.14,2.34,1.43,3.98.44,2.44.31,3.98-.47,6.34ZM468.7,30.31c-1.42-5.6-2.79-8.9-6.51-13.34-2.83-3.35-4.93-4.92-8.73-7.13-3.35-1.96-5.45-2.8-9.2-3.81-4.39-1.21-7.04-1.18-11.59-1.42-3.95-.23-6.2-.23-10.15,0h-27.3v104.73h27.3v-34.29c3.95,0,6.19.08,10.15,0,4.96-.1,7.76-.07,12.69-.47,3.81-.31,5.61-1.71,8.73-3.66,3.61-2.24,5.29-4.13,7.94-7.46,2.6-3.25,3.86-5.33,5.39-9.19,1.99-5.03,2.33-8.24,2.38-13.64.03-4.06-.11-6.4-1.1-10.32h0Z"/>
          <path id="_62617536" d="M292.1,109.34V44.28l22.21,65.06h17.45l22.22-65.06v65.06h25.38V4.61h-35.22l-20.63,64.1-20.62-64.1h-34.91v104.73h24.12Z"/>
          <path id="_62618200" d="M225.76,4.61v68.55c.12,2.39-.22,3.87-1.27,6.01-.91,1.87-1.76,2.81-3.33,4.13-1.42,1.21-2.38,1.77-4.12,2.38-2.07.72-3.39.87-5.56.63-1.66-.17-2.6-.45-4.14-1.1-1.96-.87-3.16-1.41-4.59-3.02-1.31-1.46-1.71-2.6-2.38-4.45-.63-1.71-.78-2.77-.94-4.59V4.61h-26.34v64.1h-.16l.16,4.45c.17,2.11.31,3.29.64,5.38.5,3.31.71,5.23,1.74,8.42,1.13,3.51,1.91,5.51,3.96,8.56,2.53,3.74,4.61,5.44,8.26,8.1,4.18,3.05,6.92,4.47,11.9,5.87,4.9,1.39,7.91,1.39,13.01,1.27,3.87-.08,6.1-.15,9.84-1.11,4.09-1.03,6.33-2.05,9.99-4.12,3.7-2.11,5.78-3.46,8.74-6.51,3.3-3.4,4.76-5.82,6.66-10.16,1.75-3.98,2.2-6.47,2.86-10.78.29-1.91.37-3,.47-4.91V4.61h-25.38Z"/>
          <path id="_62618152" d="M108.66,28.34h15.55c2.62.73,4.06,1.61,6.03,3.5,1.44,1.38,2.17,2.33,3.01,4.13,1.05,2.22,1.11,3.72,1.27,6.18.13,1.87.23,2.95-.16,4.76-.27,1.29-.52,2.01-1.11,3.18-.83,1.65-1.45,2.58-2.85,3.82-2.01,1.74-3.56,2.47-6.19,2.84v.16h-15.55s0-28.57,0-28.57ZM136.58,73.4v-.5c1.6-.29,3.19-.75,5.08-1.54,3.39-1.43,5.16-2.68,7.94-5.1,3.05-2.62,4.68-4.39,6.66-7.92,2.34-4.17,2.83-7.02,3.49-11.75.67-4.78.63-7.61-.16-12.36-.7-4.25-1.47-6.63-3.33-10.48-2.1-4.37-3.67-6.79-7.14-10.16-4.06-3.96-6.97-5.95-12.37-7.62-4.68-1.46-7.78-1.6-12.54-1.12h-41.57v104.73h26.02v-34.27l21.58,34.27h31.73l-25.39-36.18h0Z"/>
        </g>
      </g>
    </g>
  </g>
</svg>