<?xml version="1.0" encoding="UTF-8"?>
<svg id="Lager_1" xmlns="http://www.w3.org/2000/svg" version="1.1" viewBox="0 0 164.4 38.2">
  <!-- Generator: Adobe Illustrator 30.2.1, SVG Export Plug-In . SVG Version: 2.1.1 Build 1)  -->
  <defs>
    <style>
      .st0 {
        fill: none;
      }

      .st1 {
        fill: #010101;
      }
    </style>
  </defs>
  <path class="st0" d="M95.3,9.2c-.2,0-.4-.1-.6-.2-.2,0-.4,0-.6,0h-1.9v2.6h2.2c.2,0,.4,0,.6,0,.2,0,.4-.1.5-.2.2-.1.3-.3.4-.4,0-.2.1-.4.1-.6,0-.2,0-.5-.2-.7-.1-.2-.3-.3-.5-.4Z"/>
  <path class="st0" d="M127.5,20.7c-.9-.3-1.9-.3-2.7,0-.4.2-.7.4-1,.7-.3.3-.5.7-.7,1.1-.3.9-.3,1.9,0,2.8.2.4.4.8.7,1.1.3.3.6.6,1,.7.9.3,1.9.3,2.7,0,.4-.2.7-.4,1-.7.3-.3.5-.7.7-1.1h0c.3-.9.3-1.9,0-2.8-.3-.8-.9-1.5-1.7-1.9Z"/>
  <path class="st0" d="M94.5,7c.2,0,.3-.1.5-.2.2,0,.3-.2.4-.4.1-.2.1-.4.1-.6,0-.2,0-.4-.1-.6,0-.2-.2-.3-.4-.4-.2,0-.4-.2-.6-.2-.2,0-.4,0-.6,0h-1.7v2.5h1.8c.2,0,.4,0,.6,0Z"/>
  <path class="st0" d="M141,21.5c-.3-.3-.7-.6-1.1-.7-.4-.2-.9-.3-1.4-.3-.5,0-.9,0-1.4.3-.8.3-1.5,1-1.7,1.9-.3.9-.3,1.9,0,2.8.3.8.9,1.5,1.7,1.9.9.3,1.9.3,2.7,0,.4-.2.8-.4,1.1-.7.3-.3.5-.7.7-1.1.3-.9.3-1.9,0-2.8-.1-.4-.4-.8-.7-1.1Z"/>
  <rect class="st1" x="37.5" y="2.7" width="4" height="33.6"/>
  <path class="st1" d="M152.1,7.9c-.4-.2-.8-.4-1.2-.5-.4-.1-.8-.2-1.2-.4-.3,0-.7-.2-.9-.5-.3-.2-.4-.5-.4-.8,0-.2,0-.4.2-.6.1-.2.3-.3.4-.4.2,0,.4-.2.5-.2.2,0,.3,0,.5,0,.3,0,.7,0,1,.2.3,0,.5.3.8.5l1.5-1.7c-.4-.4-.9-.6-1.4-.8-.6-.2-1.1-.2-1.7-.2-.5,0-1,0-1.5.2-.5.1-.9.4-1.2.6-.4.3-.7.6-.9,1.1-.2.5-.3,1-.3,1.5,0,.5,0,1,.3,1.4.2.3.6.6.9.8.4.2.8.4,1.2.5.4.1.8.3,1.2.4.4.1.7.3,1,.5.3.2.4.5.4.8,0,.2,0,.4-.2.5-.1.2-.2.3-.4.4-.2.1-.4.2-.6.2-.6.1-1.2,0-1.8-.2-.3-.2-.6-.4-.9-.7l-1.5,1.7c.5.4,1,.7,1.6,1,1.1.4,2.3.4,3.5.1.5-.1.9-.3,1.3-.6.4-.3.7-.7.9-1.1.2-.5.3-1,.3-1.5,0-.5,0-1-.4-1.5-.2-.4-.5-.7-.9-.9Z"/>
  <polygon class="st1" points="50.2 8.7 50.2 36.3 54.2 36.3 54.2 17.8 50.4 8.7 50.2 8.7"/>
  <path class="st1" d="M161.1,7.9h0c-.4-.2-.8-.4-1.2-.5-.4-.1-.8-.2-1.2-.4-.3,0-.6-.3-.9-.5-.3-.2-.4-.5-.4-.8,0-.2,0-.4.2-.6.1-.2.3-.3.4-.4.2,0,.3-.2.5-.2.2,0,.4,0,.5,0,.3,0,.7,0,1,.2.3,0,.6.3.8.5l1.5-1.7c-.4-.4-.9-.6-1.4-.8-.6-.2-1.2-.2-1.8-.2-.5,0-1,0-1.5.2-.5.1-.9.4-1.3.6-.4.3-.7.6-.9,1.1-.2.5-.3,1-.3,1.5,0,.5.1,1,.4,1.4.2.3.5.6.9.8.4.2.8.4,1.2.5.4.1.8.3,1.2.4.3.1.7.3,1,.5.3.2.4.5.4.8,0,.2,0,.4-.2.5-.1.2-.2.3-.4.4-.2.1-.4.2-.5.2-.6.1-1.2,0-1.8-.2-.3-.2-.6-.4-.9-.7l-1.6,1.7c.5.4,1,.7,1.6,1,1.1.4,2.3.4,3.5.1.5-.1.9-.3,1.3-.6.4-.3.7-.7.9-1.1.2-.5.3-1,.3-1.5,0-.5,0-1-.3-1.5-.2-.4-.5-.7-.9-.9Z"/>
  <path class="st1" d="M95.6,23.8c-.4-.2-.8-.4-1.2-.5l-1.2-.4c-.3-.1-.6-.3-.9-.5-.3-.2-.4-.5-.4-.8,0-.2,0-.4.2-.6.1-.2.3-.3.4-.4.2,0,.4-.2.5-.2h0c.2,0,.4,0,.5,0,.3,0,.7,0,1,.2.3,0,.5.3.8.5l1.5-1.6c-.4-.4-.9-.7-1.4-.8-.6-.2-1.1-.3-1.7-.3-.5,0-1,0-1.5.2-.5.1-.9.4-1.3.7-.8.6-1.2,1.5-1.2,2.5,0,.5.1,1,.3,1.4.2.3.5.6.9.8.4.2.8.4,1.2.5l1.2.4c.4.1.7.3,1,.5.3.2.4.5.4.8,0,.2,0,.4-.2.6-.1.2-.2.3-.4.4-.2.1-.4.2-.6.2-.6.1-1.2,0-1.8-.2-.3-.2-.6-.4-.9-.7l-1.5,1.7c.5.4,1,.8,1.6,1,.6.2,1.3.3,1.9.3.5,0,1-.1,1.5-.3.5-.1.9-.3,1.3-.6.4-.3.7-.7.9-1.1.2-.5.3-1,.3-1.5,0-.5,0-1-.3-1.5-.2-.3-.5-.6-.9-.9Z"/>
  <polygon class="st1" points="66.5 29 66.4 29 55 2.7 51 2.7 65.2 36.3 67.6 36.3 78.3 11.1 78.3 36.3 82.3 36.3 82.3 2.7 77.9 2.7 66.5 29"/>
  <path class="st1" d="M115.1,11.3c-.2.1-.4.2-.5.2h0c-.6.1-1.2,0-1.8-.2-.3-.2-.6-.4-.9-.7l-1.5,1.7c.5.4,1,.7,1.6,1,.6.2,1.3.3,1.9.3.5,0,1.1,0,1.6-.2.5-.1.9-.3,1.3-.6.4-.3.7-.7.9-1.1.2-.5.3-1,.3-1.5,0-.5,0-1-.3-1.5-.2-.3-.5-.6-.9-.9-.4-.2-.8-.4-1.2-.5-.4-.1-.8-.2-1.2-.4-.3,0-.7-.3-.9-.5-.3-.2-.4-.5-.4-.8,0-.2,0-.4.2-.6.1-.2.3-.3.4-.4.2,0,.4-.2.5-.2.2,0,.4,0,.5,0,.3,0,.7,0,1,.2.3,0,.5.3.8.5l1.5-1.7c-.4-.3-.9-.6-1.4-.8-.6-.2-1.2-.3-1.8-.2-.5,0-1,0-1.5.2-.5.1-.9.4-1.3.6-.4.3-.7.6-.9,1.1-.2.5-.3,1-.3,1.5,0,.5.1,1,.4,1.4.2.3.5.6.9.8.4.2.8.4,1.2.5.4.1.8.3,1.2.4.4.1.7.3,1,.5.3.2.4.5.4.8,0,.2,0,.4-.2.5-.1.2-.2.3-.4.4Z"/>
  <polygon class="st1" points="127.1 5.9 131.6 13.4 134.3 13.4 134.3 2.8 132.1 2.8 132.1 10.1 127.7 2.8 125 2.8 125 13.4 127.1 13.4 127.1 5.9"/>
  <rect class="st1" x="2.4" y="2.7" width="4" height="33.6"/>
  <polygon class="st1" points="19.7 2.7 15.6 2.7 15.6 36.3 19.6 36.3 19.6 21.3 34.5 21.3 34.5 17.5 19.7 17.5 19.7 2.7"/>
  <path class="st1" d="M130.1,19.9h0c-.5-.5-1.1-.9-1.8-1.1-.7-.3-1.5-.4-2.2-.4-.8,0-1.5.1-2.2.4-.7.2-1.2.6-1.8,1.1-.5.5-.9,1.1-1.2,1.8-.6,1.5-.6,3.1,0,4.6.3.7.6,1.2,1.2,1.7.5.5,1.1.9,1.8,1.1.7.3,1.5.4,2.2.4.8,0,1.5-.1,2.2-.4.7-.2,1.2-.6,1.7-1.1.5-.5.9-1.1,1.2-1.7.5-1.5.5-3.1,0-4.6-.3-.7-.7-1.3-1.2-1.8ZM129.3,25.4h0c-.1.4-.4.8-.7,1.1-.3.3-.6.6-1,.7-.9.3-1.9.3-2.7,0-.4-.2-.7-.4-1-.7-.3-.3-.5-.7-.7-1.1-.3-.9-.3-1.9,0-2.8.1-.4.4-.8.7-1.1.3-.3.6-.6,1-.7.9-.3,1.9-.3,2.7,0,.8.3,1.4,1,1.7,1.9.3.9.3,1.9,0,2.8Z"/>
  <path class="st1" d="M142.6,19.9h0c-.5-.5-1.1-.9-1.8-1.1-1.4-.5-3-.5-4.5,0-.6.2-1.2.6-1.7,1.1-.5.5-.9,1.1-1.2,1.8-.6,1.5-.6,3.1,0,4.6.3.7.6,1.2,1.2,1.7.5.5,1.1.9,1.8,1.1,1.4.5,3,.5,4.5,0,.7-.2,1.3-.6,1.8-1.1.5-.5.9-1.1,1.1-1.7.6-1.5.6-3.1,0-4.6-.3-.7-.6-1.3-1.1-1.8ZM141.7,25.4c-.2.4-.4.8-.7,1.1-.3.3-.7.6-1.1.7-.9.3-1.9.3-2.7,0-.8-.3-1.4-1-1.7-1.9-.3-.9-.3-1.9,0-2.8.3-.8.9-1.5,1.7-1.9.4-.2.9-.3,1.4-.3.5,0,.9,0,1.4.3.4.2.8.4,1.1.7.3.3.5.7.7,1.1.3.9.3,1.9,0,2.8Z"/>
  <polygon class="st1" points="148.4 18.7 146.2 18.7 146.2 29.3 152.8 29.3 152.8 27.3 148.4 27.3 148.4 18.7"/>
  <rect class="st1" x="120.1" y="2.8" width="2.2" height="10.5"/>
  <path class="st1" d="M97.5,8.7c-.2-.2-.4-.4-.7-.5-.3-.1-.6-.2-.9-.3h0v-.2h0c.5-.1,1-.4,1.3-.8.3-.4.5-.9.5-1.5,0-.5,0-1-.3-1.4-.2-.3-.5-.6-.9-.8-.4-.2-.8-.3-1.2-.4-.5,0-.9,0-1.4,0h-3.9v10.6h4.3c.5,0,.9,0,1.4-.1.4,0,.9-.3,1.3-.5.4-.2.7-.5.9-.9.2-.4.4-.9.4-1.4h0c0-.4,0-.7-.2-1-.1-.3-.3-.5-.5-.8ZM92.1,4.6h1.7c.2,0,.4,0,.6,0,.2,0,.4,0,.6.2.2,0,.3.2.4.4.1.2.2.4.1.6,0,.2,0,.4-.1.6,0,.2-.2.3-.4.4-.2,0-.3.2-.5.2-.2,0-.4,0-.6,0h-1.8v-2.5ZM95.9,10.8c-.1.2-.2.3-.4.4-.2.1-.3.2-.5.2-.2,0-.4,0-.6,0h-2.2v-2.6h1.9c.2,0,.4,0,.6,0,.2,0,.4,0,.6.2.2,0,.4.2.5.4.1.2.2.4.2.7,0,.2,0,.4-.1.6Z"/>
  <polygon class="st1" points="139 9 143.6 9 143.6 7 139 7 139 4.8 143.9 4.8 143.9 2.8 136.8 2.8 136.8 13.4 144.2 13.4 144.2 11.4 139 11.4 139 9"/>
  <polygon class="st1" points="116.5 23 111.7 23 111.7 18.7 109.5 18.7 109.5 29.3 111.7 29.3 111.7 24.9 116.5 24.9 116.5 29.3 118.7 29.3 118.7 18.7 116.5 18.7 116.5 23"/>
  <path class="st1" d="M103.8,27.5s0,0,0,0c0,0,0,0,0,0h0Z"/>
  <path class="st1" d="M105.1,27.2c-.4.2-.8.3-1.3.3,0,0,0,0,0,0h0s0,0,0,0c-.4,0-.8,0-1.2-.3-.4-.2-.7-.4-1-.7-.3-.3-.5-.7-.7-1.1-.2-.5-.2-.9-.2-1.4,0-.5,0-1,.2-1.4.2-.4.4-.8.7-1.1.3-.3.6-.6,1-.7.4-.2.8-.3,1.3-.3.4,0,.8,0,1.2.2.3.1.6.3.8.6l1.7-1.4c-.2-.3-.5-.5-.7-.7-.3-.2-.6-.3-.9-.5-.3-.1-.7-.2-1-.3-.3,0-.6,0-.9,0-.8,0-1.5.1-2.3.4-.7.2-1.3.6-1.8,1.1-.5.5-.9,1.1-1.2,1.8-.6,1.5-.6,3.1,0,4.6.3.7.7,1.3,1.2,1.7.5.5,1.1.9,1.8,1.1.7.3,1.5.4,2.3.4.7,0,1.5-.2,2.1-.4.6-.3,1.2-.7,1.6-1.3l-1.8-1.4c-.2.3-.5.6-.9.8Z"/>
  <path class="st1" d="M106.5,9.2c0,.3,0,.7-.2,1-.1.3-.3.5-.5.8-.2.2-.4.4-.7.5h0c-.3,0-.6.1-.9.1-.3,0-.6,0-.9-.2-.3-.1-.5-.3-.7-.5-.2-.2-.4-.5-.5-.8-.1-.3-.2-.7-.2-1V2.8h-2.1v6.5c0,.6,0,1.2.3,1.7.2.5.5,1,.8,1.4.4.4.9.7,1.4.9.6.2,1.3.3,1.9.3.7,0,1.3,0,1.9-.3.5-.2,1-.5,1.4-.9.4-.4.6-.9.8-1.4.2-.6.3-1.1.3-1.7V2.8h-2.2v6.4Z"/>
</svg>