<?xml version="1.0" standalone="no"?>
<!DOCTYPE svg PUBLIC "-//W3C//DTD SVG 20010904//EN"
 "http://www.w3.org/TR/2001/REC-SVG-20010904/DTD/svg10.dtd">
<svg version="1.0" xmlns="http://www.w3.org/2000/svg"
 width="800.000000pt" height="114.000000pt" viewBox="0 0 800.000000 114.000000"
 preserveAspectRatio="xMidYMid meet">

<g transform="translate(0.000000,114.000000) scale(0.100000,-0.100000)"
fill="#a51140" stroke="none">
<path d="M5769 1130 c-208 -24 -344 -92 -405 -202 l-29 -53 -3 -288 c-4 -332
0 -354 73 -435 88 -98 219 -141 455 -149 179 -6 237 4 360 64 41 20 79 37 84
37 4 1 16 -19 26 -44 l18 -45 91 -3 91 -3 0 286 0 285 -305 0 -305 0 0 -85 0
-84 123 -3 122 -3 0 -62 c0 -57 -3 -65 -35 -98 -58 -60 -176 -81 -302 -54 -39
9 -63 22 -90 49 l-38 38 0 283 c0 260 2 287 19 315 33 54 80 69 216 69 105 0
125 -3 162 -22 51 -28 83 -72 90 -123 l6 -40 170 0 170 0 -7 48 c-7 55 -55
158 -88 189 -51 48 -141 92 -230 113 -104 24 -317 34 -439 20z"/>
<path d="M7209 1130 c-212 -24 -349 -95 -411 -213 -22 -40 -23 -53 -26 -330
-4 -332 0 -354 73 -435 51 -56 138 -103 241 -129 101 -25 476 -26 584 0 153
36 251 101 300 202 24 48 25 59 28 307 4 289 -2 343 -51 415 -84 124 -238 180
-522 188 -77 2 -174 0 -216 -5z m340 -205 c19 -11 43 -33 55 -48 20 -27 21
-42 24 -300 2 -244 1 -276 -15 -307 -52 -102 -333 -125 -432 -35 l-36 33 -3
283 c-3 304 0 324 47 358 45 32 91 40 211 38 94 -2 121 -6 149 -22z"/>
<path d="M2604 1113 c4 -10 111 -261 240 -558 l234 -540 208 0 208 0 238 554
c131 304 238 555 238 557 0 3 -79 3 -176 2 l-176 -3 -158 -385 c-87 -212 -162
-391 -167 -399 -6 -9 -61 111 -174 385 l-166 399 -177 3 c-166 2 -177 1 -172
-15z"/>
<path d="M0 566 l0 -556 313 0 c352 0 492 11 617 47 175 50 256 127 267 253
12 127 -48 201 -220 270 l-57 24 67 33 c72 36 126 81 149 125 16 31 19 115 4
152 -18 47 -78 102 -147 134 -129 59 -178 64 -605 69 l-388 5 0 -556z m685
360 c97 -42 126 -119 65 -176 -48 -45 -110 -61 -252 -67 l-128 -6 0 138 0 137
138 -4 c100 -3 148 -9 177 -22z m-41 -431 c88 -19 135 -43 164 -85 65 -96 -17
-194 -184 -220 -38 -6 -110 -10 -159 -8 l-90 3 -3 163 -2 162 102 0 c57 0 134
-7 172 -15z"/>
<path d="M1430 565 l0 -555 520 0 520 0 0 95 0 95 -335 0 -335 0 0 145 0 145
245 0 245 0 0 95 0 95 -245 0 -245 0 0 130 0 130 325 0 325 0 0 90 0 90 -510
0 -510 0 0 -555z"/>
<path d="M4120 565 l0 -555 525 0 525 0 0 95 0 95 -340 0 -340 0 0 145 0 145
245 0 245 0 0 95 0 95 -245 0 -245 0 0 130 0 130 325 0 325 0 0 90 0 90 -510
0 -510 0 0 -555z"/>
</g>
</svg>
