<?xml version="1.0" encoding="UTF-8"?>
<svg id="Ny_logo" xmlns="http://www.w3.org/2000/svg" version="1.1" viewBox="0 0 293.8 173.2">
  <!-- Generator: Adobe Illustrator 30.2.1, SVG Export Plug-In . SVG Version: 2.1.1 Build 1)  -->
  <defs>
    <style>
      .st0 {
        fill: none;
      }

      .st1 {
        fill: #ea0029;
      }

      .st2 {
        fill: #0071ce;
      }

      .st3 {
        fill: #fff;
      }
    </style>
  </defs>
  <path class="st1" d="M107.6,31.2c-.8,0-1.5,0-2.1.5s-1,1.1-1.1,1.8c-.1.8,0,1.5.5,2.1.5.6,1.1,1,1.8,1.1.8,0,1.5,0,2.1-.5.6-.5,1-1.1,1.1-1.8,0-.8,0-1.4-.5-2.1-.5-.6-1.1-1-1.8-1.1Z"/>
  <path class="st1" d="M114.6,25.9l-.9.5.9,1.7.9-.5c.5-.3.5-.8.3-1.3-.2-.5-.7-.7-1.2-.4Z"/>
  <path class="st1" d="M188.3,31.6h0l-1.2,1.6.8.6c.4.3,1,.2,1.3-.3.3-.4.3-1,0-1.3l-.8-.6Z"/>
  <polygon class="st1" points="142.7 21.8 144.5 21.8 143.5 19.5 142.7 21.8"/>
  <path class="st0" d="M115.6,33.9l1.8-.9-1.7-3.1.4-.2,3.3,2.2,2-1.1-3.8-2.5c.5-.9.5-1.8,0-2.8-.4-.7-1-1.2-1.7-1.5-.7-.3-1.5-.2-2.2.2l-2.7,1.4h.2l4.4,8.3Z"/>
  <polygon class="st0" points="102.5 44.3 99.9 41.7 104.1 42.7 105.8 41 100.4 39.8 99 34.4 97.4 36.1 98.4 40.3 95.8 37.7 94.4 39.1 101.1 45.7 102.5 44.3"/>
  <path class="st0" d="M103.2,36.7c.8,1.1,1.9,1.7,3.2,1.9,1.3.2,2.4-.1,3.5-.9,1.1-.8,1.7-1.9,1.9-3.2.2-1.3,0-2.4-.9-3.5-.8-1.1-1.9-1.7-3.2-1.9-1.3-.2-2.4,0-3.5.9-1,.8-1.6,1.9-1.8,3.2-.2,1.4,0,2.5.9,3.6h0Z"/>
  <polygon class="st0" points="126.3 28.8 126.1 18.8 124.1 19.6 124.3 25.7 120.5 20.9 118.5 21.7 124.8 29.3 126.3 28.8"/>
  <path class="st0" d="M146.2,25h2.1l-4.2-9.1h-1.5l-3.3,9.6.2-.2h2.1l.6-1.7,3.2-.2s.8,1.7.8,1.6Z"/>
  <polygon class="st0" points="157.5 26 158.5 16.7 156.5 16.5 155.9 22 153 16.1 151.1 15.9 150 25.2 152 25.4 152.6 19.9 155.6 25.8 157.5 26"/>
  <polygon class="st0" points="135 22.6 135.7 26.2 137.7 25.8 135.8 16.6 133.8 17 134.6 20.6 131.8 21.2 131.1 17.6 129.1 18 131 27.2 133 26.8 132.2 23.2 135 22.6"/>
  <path class="st0" d="M182,36.1l1.6,1.2,2.2-2.8.4.3-.7,4,1.8,1.4.7-4.4c1.1.1,1.9-.2,2.6-1.1.5-.6.7-1.3.7-2.1,0-.7-.4-1.4-1.1-1.9l-2.4-1.9h0c0,0-5.8,7.3-5.8,7.3Z"/>
  <polygon class="st0" points="193.9 38.8 196.5 36.2 195.1 34.8 188.4 41.3 189.8 42.8 192.4 40.2 191.4 44.4 193.1 46.1 194.3 40.7 199.7 39.5 198.1 37.8 193.9 38.8"/>
  <polygon class="st0" points="180.3 35 181.3 33.3 178.5 31.7 179.4 30.2 182.2 31.8 183.2 30.1 180.4 28.5 181.2 27 184 28.7 185.1 27 180.5 24.3 175.7 32.3 180.3 35"/>
  <polygon class="st0" points="178 22.9 176 22.1 171.9 26.7 172.4 20.6 170.5 19.7 169.9 29.7 171.3 30.3 178 22.9"/>
  <polygon class="st0" points="161.4 26.9 163.3 27.4 165.2 20.3 167.2 20.8 167.7 18.9 161.8 17.3 161.3 19.3 163.2 19.8 161.4 26.9"/>
  <path class="st1" d="M107.1,137.5l-1.2,1.6.8.6c.4.3,1,.1,1.3-.3.3-.4.3-1,0-1.3,0,0-.8-.6-.8-.6Z"/>
  <path class="st1" d="M116.9,139.6h0c-.2.4,0,.8.2,1,.3.2.7,0,.9-.3.2-.3,0-.7-.2-.9-.3-.2-.7,0-.9.2Z"/>
  <polygon class="st1" points="114.7 147 115 144.6 113.1 146.1 114.7 147"/>
  <path class="st1" d="M192.3,133.5c-.7,0-1.3.2-1.9.8l-.9.8h.1l3.7,3.9.8-.8c.6-.5.9-1.2.9-1.9s-.2-1.4-.8-1.9c-.5-.6-1.2-.9-1.9-.9Z"/>
  <polygon class="st1" points="158.5 151.9 158 154.2 159.8 153.9 158.5 151.9"/>
  <polygon class="st1" points="177.1 148 175.3 146.4 175.3 148.8 175.5 148.8 177.1 148"/>
  <path class="st1" d="M157.4,146c-.3,0-.6.4-.5.7h0c0,.5.4.7.7.6.3,0,.6-.4.5-.8,0-.3-.4-.6-.7-.5Z"/>
  <polygon class="st3" points="108.2 147.5 108.2 147.5 108.1 147.4 108.2 147.5"/>
  <path class="st3" d="M138.3,151.1s0,0,0-.1h0s0,.1,0,.1Z"/>
  <polygon class="st3" points="158 154.3 158 154.2 158 154.2 158 154.3"/>
  <polygon class="st3" points="173.8 153.6 173.8 153.5 173.7 153.5 173.8 153.6"/>
  <path class="st2" d="M121,82.7c-4.9,0-8.5,3.7-8.5,8.5s3.6,8.5,8.5,8.5,8.5-3.7,8.5-8.5-3.6-8.5-8.5-8.5Z"/>
  <path class="st2" d="M191.7,82.7c-4.9,0-8.5,3.7-8.5,8.5s3.6,8.5,8.5,8.5,8.5-3.7,8.5-8.5-3.6-8.5-8.5-8.5Z"/>
  <path class="st0" d="M137.4,96.4v-33.4h-7.9v16.8c-2.4-3-1.4-4.8-10-4.8s-15.1,7-15.1,16.2,6.5,16.2,15.1,16.2,8.2-2.1,10.6-5.6c1.2,3.2,3.9,4.8,8.3,4.8h2.2v-7.6h-.6c-1.7,0-2.6-1-2.6-2.6Z"/>
  <path class="st0" d="M164.1,75.8c.6,3.2-.1,6.9-1.8,11.6l-3.8,9.5-8-21.1h-9l12.8,30.9h8.2l7.4-17.7c2.2-5.3,2.9-9.7,2.2-13.2h-8Z"/>
  <path class="st0" d="M98.4,96.5v-9.4c0-7.3-4.7-12-12-12s-7.4,1.5-9.8,4.5v-3.8h-7.9v30.9h7.9v-17c0-4.2,3.3-7,7.3-7s6.7,2.7,6.7,6.9v8.5c0,5.6,3,8.5,8.9,8.5h2.2v-7.5h-.7c-1.6,0-2.6-1-2.6-2.6Z"/>
  <rect class="st0" x="53.2" y="75.7" width="7.9" height="30.9"/>
  <path class="st0" d="M57.2,62.4c-2.8,0-5,2.1-5,4.9s2.2,4.9,5,4.9,5-2.1,5-4.9-2.2-4.9-5-4.9Z"/>
  <path class="st0" d="M241.8,96.2v-33.2h-7.9v34.5h0c0,5.9,3.4,9.1,10.1,9.1h3v-7.2h-1.9c-2.2,0-3.4-1.2-3.4-3.2Z"/>
  <path class="st0" d="M264.3,88.1c-4.2-1-6.1-2.3-6.1-3.8s1.3-2.7,3.6-2.7,3.9,1.4,3.9,3h7.9c0-5.3-5.6-9.5-11.8-9.5s-11.6,4.9-11.6,9.7,3.4,8.1,10,9.5c4,.8,5.9,2.1,5.9,3.8s-1.5,2.8-4,2.8-4.5-1.6-4.5-3.5h-7.9l.2.2c0,5.5,5.8,10,12.3,10s12-5.3,12-10.1-3.2-7.9-9.9-9.4Z"/>
  <path class="st0" d="M224.5,96.2v-33.2h-7.9v34.5h0c0,5.9,3.4,9.1,10.1,9.1h3v-7.2h-1.9c-2.2,0-3.4-1.2-3.4-3.2Z"/>
  <path class="st0" d="M208.1,96.4v-20.7h-7.9v4.1c-2.4-3-1.4-4.8-10-4.8s-15.1,7-15.1,16.2,6.5,16.2,15.1,16.2,8.2-2.1,10.6-5.6c1.2,3.2,3.9,4.8,8.3,4.8h2.2v-7.6h-.6c-1.7,0-2.6-1-2.6-2.6Z"/>
  <polygon class="st0" points="133.8 17 134.6 20.6 131.8 21.2 131.1 17.6 129.1 18 131 27.2 133 26.8 132.2 23.2 135 22.6 135.7 26.2 137.7 25.8 135.8 16.6 133.8 17"/>
  <polygon class="st0" points="124.1 19.6 124.3 25.7 120.5 20.9 118.5 21.7 124.8 29.3 126.3 28.8 126.1 18.8 124.1 19.6"/>
  <path class="st0" d="M117.6,25.5c-.4-.7-1-1.2-1.7-1.5-.7-.3-1.5-.2-2.2.2l-2.7,1.4h.2l4.4,8.3,1.8-.9-1.7-3.1.4-.2,3.3,2.2,2-1.1-3.8-2.5c.5-.9.5-1.8,0-2.8Z"/>
  <path class="st0" d="M107.7,29.1c-1.3-.2-2.4,0-3.5.9-1,.8-1.6,1.9-1.8,3.2-.2,1.4,0,2.5.9,3.6h0c.8,1,1.9,1.6,3.2,1.8,1.3.2,2.4-.1,3.5-.9,1.1-.8,1.7-1.9,1.9-3.2.2-1.3,0-2.4-.9-3.5-.8-1.1-1.9-1.7-3.2-1.9Z"/>
  <polygon class="st0" points="161.3 19.3 163.2 19.8 161.4 26.9 163.3 27.4 165.2 20.3 167.2 20.8 167.7 18.9 161.8 17.3 161.3 19.3"/>
  <polygon class="st0" points="176 22.1 171.9 26.7 172.4 20.6 170.5 19.7 169.9 29.7 171.3 30.3 178 22.9 176 22.1"/>
  <path class="st0" d="M142.6,15.9l-3.3,9.6.2-.2h2.1l.6-1.7,3.2-.2s.8,1.7.8,1.6h2.1l-4.2-9.1h-1.5Z"/>
  <polygon class="st0" points="155.9 22 153 16.1 151.1 15.9 150 25.2 152 25.4 152.6 19.9 155.6 25.8 157.5 26 158.5 16.7 156.5 16.5 155.9 22"/>
  <polygon class="st0" points="120.6 153.7 122.5 148.5 124 155 125.8 155.6 129 146.8 127.1 146.1 125.2 151.3 123.8 144.9 121.9 144.2 118.7 153 120.6 153.7"/>
  <polygon class="st0" points="99 34.4 97.4 36.1 98.4 40.3 95.8 37.7 94.4 39.1 101.1 45.7 102.5 44.3 99.9 41.7 104.1 42.7 105.8 41 100.4 39.8 99 34.4"/>
  <polygon class="st0" points="110 148.4 111.5 147.3 114.3 148.9 114.1 150.8 116 151.8 117.3 141.8 116 141.1 108.2 147.5 110 148.4"/>
  <polygon class="st0" points="108.2 147.5 108.2 147.5 108.1 147.4 108.2 147.5"/>
  <polygon class="st0" points="179.4 30.2 182.2 31.8 183.2 30.1 180.4 28.5 181.2 27 184 28.7 185.1 27 180.5 24.3 175.7 32.3 180.3 35 181.3 33.3 178.5 31.7 179.4 30.2"/>
  <path class="st0" d="M116.8,141.2c.7.4,1.4.1,1.8-.5.4-.7.1-1.4-.5-1.8-.7-.4-1.4-.1-1.8.5-.4.6-.2,1.4.5,1.8Z"/>
  <path class="st0" d="M138.3,151.1s0,0,0-.1h0s0,.1,0,.1Z"/>
  <polygon class="st0" points="99.1 135.4 101.5 137.6 102.9 136.2 100.5 133.9 101.7 132.7 104 135 105.4 133.6 101.6 129.9 95.1 136.6 96.5 138 99.1 135.4"/>
  <path class="st0" d="M102.5,143.1l2.1-2.8.4.3-.6,4,1.8,1.4.7-4.4c1.1.2,1.9-.2,2.6-1.1.5-.6.7-1.3.7-2.1-.1-.7-.4-1.4-1.1-1.9l-2.4-1.8v-.3c-.1,0-5.8,7.5-5.8,7.5l1.6,1.2Z"/>
  <polygon class="st0" points="175.6 152.6 175.6 150.8 178.5 149.4 179.9 150.6 181.8 149.7 174.4 142.9 173.1 143.5 173.8 153.5 175.6 152.6"/>
  <path class="st0" d="M241.8,96.2v-33.2h-7.9v34.5h0c0,5.9,3.4,9.1,10.1,9.1h3v-7.2h-1.9c-2.2,0-3.4-1.2-3.4-3.2Z"/>
  <polygon class="st0" points="186.1 147 183 142.5 189.1 145 190.6 143.9 185.3 136.2 183.7 137.3 186.8 141.9 180.7 139.4 179.2 140.5 184.5 148.2 186.1 147"/>
  <path class="st0" d="M136.8,155.9c-.5,0-.8-.4-1-.9l-1.7.5c.2,1.3,1.1,2.2,2.4,2.4.8,0,1.5,0,2.1-.5.6-.4,1-1,1.1-1.8,0-.8,0-1.4-.3-1.9-.3-.5-.8-.9-1.6-1.4-.7-.5-.9-.8-.9-1.2,0-.3.4-.6.8-.6.3,0,.5.2.6.5l1.8-.6c0-.5-.4-.9-.8-1.3-.4-.3-.9-.6-1.4-.6-.8,0-1.5.1-2.1.5-.5.4-.9,1-1,1.9,0,1.2.5,2.2,1.9,3,.8.4,1,.6,1,1.3-.1.5-.5.7-.9.7Z"/>
  <polygon class="st0" points="171.4 154.4 170.7 152.5 167.9 153.5 165.6 146.4 163.7 147 166.6 156 171.4 154.4"/>
  <polygon class="st0" points="173.8 153.6 173.8 153.5 173.7 153.5 173.8 153.6"/>
  <path class="st0" d="M190.6,34.7c.5-.6.7-1.3.7-2.1,0-.7-.4-1.4-1.1-1.9l-2.4-1.9h0c0,0-5.8,7.3-5.8,7.3l1.6,1.2,2.2-2.8.4.3-.7,4,1.8,1.4.7-4.4c1.1.1,1.9-.2,2.6-1.1Z"/>
  <path class="st0" d="M193.3,141.9l2.3-2.1c1-.9,1.5-2,1.5-3.3s-.4-2.5-1.3-3.4c-.9-1-2-1.5-3.3-1.5s-2.4.4-3.4,1.3l-2.3,2.1h.1l6.4,6.9Z"/>
  <path class="st0" d="M264.3,88.1c-4.2-1-6.1-2.3-6.1-3.8s1.3-2.7,3.6-2.7,3.9,1.4,3.9,3h7.9c0-5.3-5.6-9.5-11.8-9.5s-11.6,4.9-11.6,9.7,3.4,8.1,10,9.5c4,.8,5.9,2.1,5.9,3.8s-1.5,2.8-4,2.8-4.5-1.6-4.5-3.5h-7.9l.2.2c0,5.5,5.8,10,12.3,10s12-5.3,12-10.1-3.2-7.9-9.9-9.4Z"/>
  <polygon class="st0" points="144.6 158.7 144.5 153.2 146.5 158.7 148.1 158.6 150 153.1 150.1 158.6 152.1 158.6 151.9 149.2 149.4 149.2 147.3 155.4 144.9 149.3 142.4 149.3 142.6 158.7 144.6 158.7"/>
  <polygon class="st0" points="157.2 158 157.6 156.2 160.8 155.6 161.8 157.1 163.9 156.7 158.6 148.1 157.1 148.4 155 158.3 155.1 158.4 157.2 158"/>
  <path class="st0" d="M226.8,106.6h3v-7.2h-1.9c-.1,0-.3,0-.4,0-.4,2.4-.9,4.8-1.5,7.2.2,0,.5,0,.7,0Z"/>
  <polygon class="st0" points="193.9 38.8 196.5 36.2 195.1 34.8 188.4 41.3 189.8 42.8 192.4 40.2 191.4 44.4 193.1 46.1 194.3 40.7 199.7 39.5 198.1 37.8 193.9 38.8"/>
  <path class="st0" d="M38.8,99.4c-1.3-.2-3.4-.4-4.4-.5h0c-1.4-.2-2.8,0-4.2,0v-33.9h-8.3v41.8c2.3,0,4.3-.4,6.4-.4s3.8.1,5.8.4c2.1.3,4.2.6,6.3.7,2.4,0,5.1-.2,7.5-.7v-7.9c-1.4.4-2.9.7-4.4.8-1.6,0-3.1,0-4.7-.2Z"/>
  <path class="st0" d="M57.2,62.4c-2.8,0-5,2.1-5,4.9s2.2,4.9,5,4.9,5-2.1,5-4.9-2.2-4.9-5-4.9Z"/>
  <rect class="st0" x="53.2" y="75.7" width="7.9" height="30.9"/>
  <path class="st0" d="M157.8,148c.8,0,1.2-.8,1.1-1.5-.1-.8-.8-1.2-1.5-1.1-.8,0-1.2.8-1.1,1.5.1.7.8,1.2,1.5,1.1Z"/>
  <path class="st1" d="M146.9,168.4c32.7,0,60.9-19.3,73.9-47.1H73c13,27.8,41.2,47.1,73.9,47.1ZM189.1,132.9c1-.9,2.1-1.3,3.4-1.3s2.4.5,3.3,1.5c.9.9,1.3,2.1,1.3,3.4s-.5,2.4-1.5,3.3l-2.3,2.1-6.4-6.9h-.1l2.3-2.1ZM180.7,139.4l6.1,2.5-3.1-4.6,1.6-1.1,5.3,7.7-1.5,1.1-6.1-2.5,3.1,4.5-1.6,1.2-5.3-7.7,1.5-1.1ZM174.4,142.9l7.4,6.8-1.9.9-1.4-1.2-2.9,1.4v1.8l-1.8.9h0c0,.1,0,0,0,0h0s-.7-10-.7-10l1.3-.6ZM165.6,146.4l2.3,7.1,2.8-1,.7,1.9-4.8,1.6-2.9-9,1.9-.6ZM157.4,145.4c.7-.1,1.4.3,1.5,1.1,0,.7-.3,1.4-1.1,1.5-.7.1-1.4-.4-1.5-1.1,0-.7.3-1.4,1.1-1.5ZM157.1,148.4l1.5-.3,5.3,8.6-2.1.4-1-1.5-3.2.6-.4,1.8-2.1.4h-.1c0,0,2.1-10,2.1-10ZM144.9,149.3l2.4,6.1,2.1-6.2h2.5l.2,9.4h-2v-5.5c-.1,0-2,5.5-2,5.5h-1.6c0,0-2-5.4-2-5.4v5.5c.1,0-1.9,0-1.9,0l-.2-9.4h2.5ZM136.7,153.9c-1.4-.8-2-1.8-1.9-3,.1-.9.5-1.5,1-1.9.6-.4,1.3-.6,2.1-.5.5,0,1,.3,1.4.6.4.4.7.8.8,1.3l-1.8.6s0,0,0,.1h0c0,0,0-.1,0-.1,0-.2-.3-.4-.6-.5-.4,0-.7.3-.8.6,0,.4.2.7.9,1.2.8.5,1.3.9,1.6,1.4.3.5.4,1.1.3,1.9-.1.8-.5,1.4-1.1,1.8-.6.5-1.3.6-2.1.5-1.3-.2-2.2-1.1-2.4-2.4l1.7-.5c.2.5.5.8,1,.9.4,0,.8-.2.9-.7,0-.7-.2-.9-1-1.3ZM123.8,144.9l1.4,6.4,1.9-5.2,1.9.7-3.2,8.8-1.8-.6-1.5-6.5-1.9,5.2-1.9-.7,3.2-8.8,1.9.7ZM116.3,139.4c.4-.6,1.1-.9,1.8-.5.6.4.9,1.1.5,1.8-.4.6-1.1.9-1.8.5-.7-.4-.9-1.2-.5-1.8ZM117.3,141.8l-1.3,10-1.9-1,.2-1.9-2.8-1.6-1.5,1.1-1.8-.9h0s-.1,0-.1,0h.1c0,0,7.8-6.3,7.8-6.3l1.3.7ZM106.7,134.7l2.4,1.8c.7.5,1,1.2,1.1,1.9,0,.8-.2,1.5-.7,2.1-.7.9-1.5,1.3-2.6,1.1l-.7,4.4-1.8-1.4.6-4-.4-.3-2.1,2.8-1.6-1.2,5.7-7.5v.3ZM101.6,129.9l3.8,3.7-1.4,1.4-2.3-2.3-1.2,1.2,2.4,2.3-1.4,1.4-2.4-2.2-2.6,2.6-1.4-1.4,6.5-6.7Z"/>
  <path class="st1" d="M146.9,5c-32.8,0-61,19.3-74,47.2h147.9c-13-27.9-41.2-47.2-74-47.2ZM104.1,42.7l-4.2-1,2.6,2.6-1.4,1.4-6.7-6.6,1.4-1.4,2.6,2.6-1-4.2,1.6-1.7,1.4,5.4,5.4,1.2-1.7,1.7ZM111.8,34.5c-.2,1.3-.8,2.4-1.9,3.2-1.1.8-2.2,1.1-3.5.9-1.3-.2-2.4-.8-3.2-1.9h0c-.8-1-1.1-2.1-.9-3.5.2-1.3.8-2.4,1.8-3.2,1.1-.8,2.2-1.1,3.5-.9,1.3.2,2.4.8,3.2,1.9.8,1.1,1.1,2.2.9,3.5ZM119.4,31.9l-3.3-2.2-.4.2,1.7,3.1-1.8.9-4.4-8.3h-.2l2.7-1.4c.7-.4,1.5-.5,2.2-.2.7.3,1.3.8,1.7,1.5.5,1,.5,1.9,0,2.8l3.8,2.5-2,1.1ZM124.8,29.3l-6.3-7.6,2-.8,3.8,4.8-.2-6.1,2-.8.2,10-1.5.5ZM135.7,26.2l-.7-3.6-2.8.6.8,3.6-2,.4-1.9-9.2,2-.4.7,3.6,2.8-.6-.8-3.6,2-.4,1.9,9.2-2,.4ZM146.2,25c0,.1-.8-1.6-.8-1.6l-3.2.2-.6,1.7h-2.1l-.2.2,3.3-9.6h1.5l4.2,9.1h-2.1ZM157.5,26l-1.9-.2-3-5.9-.6,5.5-2-.2,1.1-9.3,1.9.2,2.9,5.9.6-5.5,2,.2-1,9.3ZM167.2,20.8l-2-.5-1.9,7.1-1.9-.5,1.8-7.1-1.9-.5.5-2,5.9,1.6-.5,1.9ZM169.9,29.7l.6-10,1.9.9-.5,6.1,4.1-4.6,2,.8-6.7,7.4-1.4-.6ZM180.3,35l-4.6-2.7,4.8-8,4.6,2.7-1.1,1.7-2.8-1.7-.8,1.5,2.8,1.6-1,1.7-2.8-1.6-.9,1.5,2.8,1.6-1,1.7ZM187.3,40.2l-1.8-1.4.7-4-.4-.3-2.2,2.8-1.6-1.2,5.8-7.4h0c0,0,2.4,2,2.4,2,.7.5,1,1.2,1.1,1.9,0,.8-.2,1.5-.7,2.1-.7.9-1.5,1.2-2.6,1.1l-.7,4.4ZM194.3,40.7l-1.2,5.4-1.7-1.7,1-4.2-2.6,2.6-1.4-1.5,6.7-6.5,1.4,1.4-2.6,2.6,4.2-1,1.6,1.7-5.4,1.2Z"/>
  <path class="st2" d="M282.6,52.2h-61.7c4.9,10.5,7.6,22.2,7.6,34.5s-.3,8.5-1,12.7c.1,0,.2,0,.4,0h1.9v7.2h-3c-.3,0-.5,0-.7,0-1.3,5.1-3,10-5.2,14.7h61.6c3.6,0,6.5-2.6,6.5-5.8v-57.5c0-3.2-2.7-5.8-6.3-5.8ZM247.1,106.6h-3c-6.7,0-10.1-3.2-10.1-9.1h0v-34.5h7.9v33.2c0,2,1.2,3.2,3.4,3.2h1.9v7.2ZM262.2,107.6c-6.5,0-12.3-4.5-12.3-10l-.2-.2h7.9c0,1.9,2,3.5,4.5,3.5s4-1.1,4-2.8-1.9-3-5.9-3.8c-6.6-1.4-10-4.7-10-9.5s5.4-9.7,11.6-9.7,11.8,4.2,11.8,9.5h-7.9c0-1.6-1.6-3-3.9-3s-3.6,1.2-3.6,2.7,1.9,2.8,6.1,3.8c6.7,1.5,9.9,4.6,9.9,9.4s-5.5,10.1-12,10.1Z"/>
  <path class="st2" d="M72.9,52.2H11.3c-3.6,0-6.3,2.6-6.3,5.8v57.5c0,3.2,2.9,5.8,6.5,5.8h61.5c-4.9-10.5-7.7-22.2-7.7-34.6s2.7-24,7.6-34.5ZM47.9,106.7c-2.4.5-5.1.8-7.5.7-2.1-.1-4.2-.4-6.3-.7-2-.3-3.7-.4-5.8-.4s-4.1.3-6.4.4v-41.8h8.3v33.9c1.4,0,2.8-.1,4.2,0h0c1,.2,3.1.4,4.4.6,1.6.2,3.1.2,4.7.2,1.5-.1,3-.4,4.4-.8v7.9ZM61.1,106.6h-7.9v-30.9h7.9v30.9ZM57.2,72.2c-2.8,0-5-2.1-5-4.9s2.2-4.9,5-4.9,5,2.1,5,4.9-2.2,4.9-5,4.9Z"/>
  <path class="st2" d="M216.7,97.5h0v-34.5h7.9v33.2c0,1.9,1.1,3,3,3.2.6-4.1,1-8.4,1-12.7,0-12.3-2.7-24-7.6-34.5H72.9c-4.9,10.5-7.6,22.2-7.6,34.5s2.8,24.1,7.7,34.6h147.9c2.2-4.7,4-9.6,5.2-14.7-6.2-.2-9.4-3.4-9.4-9.1ZM101.7,99.1v7.5h-2.2c-5.9,0-8.9-2.9-8.9-8.5v-8.5c0-4.2-2.7-6.9-6.7-6.9s-7.3,2.8-7.3,7v17h-7.9v-30.9h7.9v3.8c2.4-3,5.7-4.5,9.8-4.5,7.3,0,12,4.7,12,12v9.4c0,1.6,1,2.6,2.6,2.6h.7c0-.1,0,0,0,0ZM140.6,106.6h-2.2c-4.4,0-7.1-1.6-8.3-4.8-2.4,3.5-6.1,5.6-10.6,5.6-8.6,0-15.1-7-15.1-16.2s6.5-16.2,15.1-16.2,7.6,1.8,10,4.8v-16.8h7.9v33.4c0,1.6.9,2.6,2.6,2.6h.6v7.6ZM169.9,89l-7.4,17.7h-8.2l-12.8-30.9h9l8,21.1,3.8-9.5c1.7-4.7,2.4-8.4,1.8-11.6h8c.7,3.5,0,7.9-2.2,13.2ZM211.3,106.6h-2.2c-4.4,0-7.1-1.6-8.3-4.8-2.4,3.5-6.1,5.6-10.6,5.6-8.6,0-15.1-7-15.1-16.2s6.5-16.2,15.1-16.2,7.6,1.8,10,4.8v-4.1h7.9v20.7c0,1.6.9,2.6,2.6,2.6h.6v7.6Z"/>
</svg>