<?xml version="1.0" encoding="UTF-8"?>
<svg id="layer" xmlns="http://www.w3.org/2000/svg" version="1.1" viewBox="0 0 608 77">
  <!-- Generator: Adobe Illustrator 30.2.1, SVG Export Plug-In . SVG Version: 2.1.1 Build 1)  -->
  <defs>
    <style>
      .st0 {
        fill: #facd39;
      }

      .st1 {
        fill: #358;
      }
    </style>
  </defs>
  <polygon class="st1" points="123.62 72.23 123.62 55.13 149.22 72.23 208.82 72.23 157.72 38.13 163.82 34.33 220.52 72.23 242.52 72.23 242.52 4.13 208.72 4.13 208.72 21.23 183.32 4.13 148.82 4.13 123.62 21.23 123.62 4.03 89.42 26.93 89.42 49.33 66.82 34.23 112.32 4.03 55.42 4.03 4.22 38.13 55.42 72.23 123.62 72.23"/>
  <polygon class="st0" points="253.92 72.23 305.02 38.13 253.92 4.03 253.92 4.03 282.42 4.03 333.52 38.13 282.42 72.23 255.82 72.23 253.92 72.23"/>
  <path class="st1" d="M361.22,33.83c.1-2.2-1.6-4-3.8-4.1h-.7c-5.6,0-6.7,5.2-6.7,8.7-.1,2.2.6,4.3,1.9,6.1,1.4,1.5,3.4,2.2,5.4,2,1.3.1,2.5-.1,3.7-.4v-4.8h-4.4v-3.8h9.3v11.4c-2.7.9-5.5,1.3-8.3,1.3-5.2,0-7.9-1.3-9.7-3-2.1-2.3-3.2-5.4-3-8.5,0-8.1,5.1-12.4,12-12.4,2.9-.2,5.7.9,7.8,2.9,1.1,1.3,1.7,3,1.6,4.8l-5.1-.2h0Z"/>
  <path class="st1" d="M370.42,26.83h4.9v9.8l7.7-9.9h5.7l-8.4,10.1,9.1,12.6h-6.1l-8.1-11.6v11.6h-4.9l.1-22.6Z"/>
  <path class="st1" d="M391.62,26.73h7.1l8.5,18v-18h4.6v22.8h-6.7l-8.8-19v19h-4.6v-22.8h-.1Z"/>
  <path class="st1" d="M434.42,26.73l7.9,22.8h-4.9l-1.6-4.9h-9l-1.7,4.9h-4.7l8.2-22.8h5.8ZM434.52,40.93l-3.2-9.7-3.4,9.7h6.6Z"/>
  <path class="st1" d="M444.72,26.73h15.3v3.7h-10.4v5.4h9.7v3.7h-9.7v6.1h10.7v3.8h-15.6v-22.7h0Z"/>
  <path class="st1" d="M463.52,26.83h8.8c2.4-.4,4.9.2,6.9,1.5,1.3,1.1,2,2.7,2,4.4-.1,2.8-2.1,5.1-4.9,5.5,3.4.3,3.7,2.3,4,5.2.4,3,.5,3.8.7,4.4.1.6.3,1.2.7,1.6h-5.4c-.2-1.3-.9-7-1.2-7.9-.4-1.3-1.6-1.3-2.5-1.3h-4.3v9.2h-5l.2-22.6ZM468.42,36.73h3.9c.9.1,1.7-.2,2.5-.6.8-.6,1.3-1.6,1.3-2.7.1-1-.4-2-1.2-2.6-1-.5-2.1-.7-3.2-.5h-3.3v6.4Z"/>
  <path class="st1" d="M494.82,26.23c3-.2,6,1,8.1,3.1,2,2.4,3,5.5,2.9,8.6.1,3.2-.9,6.4-2.9,8.9-2.1,2.2-5.1,3.3-8.1,3.2-3,.1-5.9-1-8.1-3.1-2-2.4-3-5.4-2.8-8.5,0-6.1,2.7-12.2,10.9-12.2ZM490.82,44.63c1,1.3,2.5,1.9,4,1.8,1.7.2,3.3-.6,4.3-2,1.2-2,1.7-4.3,1.6-6.5,0-1.4-.2-2.7-.6-4-.6-2.4-2.7-4.1-5.2-4-1.6,0-3.2.7-4.2,2-2.3,4-2.3,9,0,13l.1-.3Z"/>
  <path class="st1" d="M512.62,42.23c-.3,2,1,4,3.1,4.3.4.1.7.1,1.1,0,2.7,0,4.3-1.3,4.3-3.2s-1.4-2.4-4.3-3.1c-5.4-1.4-8.4-3-8.4-6.9s2.7-7.1,9-7.1c2.6-.2,5.1.8,6.9,2.7.9,1.2,1.4,2.7,1.3,4.2h-4.6c.1-1.9-1.4-3.4-3.2-3.5h-.4c-2.3,0-3.8,1.2-3.8,3.1s1.7,2.5,5,3.3c3.9,1,7.8,2,7.8,6.5,0,4-3.4,7.4-9.7,7.4-8.7,0-8.8-5.6-8.8-7.8l4.7.1Z"/>
  <path class="st1" d="M529.62,26.73h7c3.3,0,6.1.2,7.9,2.5,1,1.2,1.4,2.7,1.4,4.3.1,2.4-1,4.7-2.9,6.1-1.6.8-3.4,1.2-5.2,1.1h-3.3v8.9h-5l.1-22.9h0ZM534.42,37.03h2c1.6,0,4.5,0,4.5-3.5,0-3.1-2.6-3.1-4-3.1h-2.5v6.6Z"/>
  <path class="st1" d="M557.92,26.73l7.9,22.8h-4.9l-1.6-4.9h-9l-1.7,4.9h-4.7l8.2-22.8h5.8ZM558.02,40.93l-3.2-9.7-3.4,9.7h6.6Z"/>
  <path class="st1" d="M580.22,34.03c0-.8-.4-4-3.7-4-3.6,0-5.1,3.8-5.1,8.5,0,1.4,0,7.8,4.8,7.8,2.2,0,4.1-1.8,4.1-4v-.3h5.1c0,2-.7,3.9-2,5.4-1.8,1.7-4.2,2.7-6.7,2.6-7.9,0-10.4-5.8-10.4-11.5,0-7.2,4-12,10.4-12,5,0,8.5,3,8.5,7.6l-5-.1Z"/>
  <path class="st1" d="M588.62,26.73h15.3v3.7h-10.4v5.4h9.7v3.7h-9.7v6.1h10.7v3.8h-15.6v-22.7Z"/>
</svg>