<?xml version="1.0" encoding="UTF-8"?>
<svg id="layer" xmlns="http://www.w3.org/2000/svg" version="1.1" viewBox="0 0 611 119">
  <!-- Generator: Adobe Illustrator 30.2.1, SVG Export Plug-In . SVG Version: 2.1.1 Build 1)  -->
  <defs>
    <style>
      .st0 {
        fill: #555;
      }
    </style>
  </defs>
  <g>
    <path class="st0" d="M39,81.4v-11.6h60.1v-21.8h-60.1v-9.4c0-5.4,2.7-8.1,8.1-8.1h53.3V6.1H21.9c-10.4,0-16.1,5.7-16.1,16.1v75.4c0,10.4,5.7,16.1,16.1,16.1h79.1v-24.4h-53.9c-5.4.2-8.1-2.6-8.1-7.9"/>
    <path class="st0" d="M146.8,80.7V6.2h-33.2v91.5c0,10.4,5.7,16.1,16.1,16.1h78.5v-25h-53.3c-5.4,0-8.1-2.7-8.1-8.1"/>
    <path class="st0" d="M251.4,81.4v-11.6h60.1v-21.8h-60.1v-9.4c0-5.4,2.7-8.1,8.1-8.1h53.3V6.1h-78.5c-10.4,0-16.1,5.7-16.1,16.1v75.4c0,10.4,5.7,16.1,16.1,16.1h79.1v-24.4h-53.9c-5.4.2-8.1-2.6-8.1-7.9"/>
  </g>
  <rect class="st0" x="326" y="6.2" width="33.2" height="107.6"/>
  <g>
    <path class="st0" d="M450.7,113.8h39.6l-41.1-46.1c-3.6-4.1-4.9-6.5-4.9-9.4s1.9-6.7,3.6-8.7l36.6-43.4h-39l-29.2,41h-.1c0,.2-.1.3-.1.3l-.3.5h-10.1V6.2h-33.2v107.6h33.2v-44h10.7l.3.5c.4.5.7.9,1,1.3l33,42.2Z"/>
    <path class="st0" d="M546.4,90.1c-21.1,0-25.3-11-25.3-30.1s4.1-30.1,25.3-30.1,25.3,11,25.3,30.1-4.2,30.1-25.3,30.1M593,15.1c-8.3-7.2-21.9-10.2-46.6-10.2s-38.3,2.9-46.6,10.2c-9,7.7-12.8,21.2-12.8,44.9s3.8,37.2,12.8,44.9c8.3,7.2,21.8,10.2,46.6,10.2s38.3-2.9,46.6-10.2c9-7.7,12.8-21.2,12.8-44.9s-3.8-37.2-12.8-44.9"/>
  </g>
</svg>