<?xml version="1.0" encoding="UTF-8"?>
<svg id="Lager_1" xmlns="http://www.w3.org/2000/svg" version="1.1" viewBox="0 0 575 88.3">
  <!-- Generator: Adobe Illustrator 30.2.1, SVG Export Plug-In . SVG Version: 2.1.1 Build 1)  -->
  <defs>
    <style>
      .st0 {
        fill: #1b181c;
      }
    </style>
  </defs>
  <path class="st0" d="M87.5,5.5v78.3h-23.6V31l-9.4,52.8h-16.7l-9.9-51.6v51.6H4.3V5.5h34.9c1,4.7,2.1,10.3,3.2,16.6l3.8,20,6.2-36.6h35.1Z"/>
  <path class="st0" d="M175.5,5.5v78.3h-23.6V31l-9.4,52.8h-16.7l-9.9-51.7v51.7h-23.6V5.5h34.9c1,4.7,2.1,10.3,3.2,16.6l3.8,20,6.2-36.6s35.1,0,35.1,0Z"/>
  <path class="st0" d="M253.1,29.2h-23.9v-5.8c0-2.7-.4-4.4-1-5.1s-2-1.2-4-1.2c-1.5,0-3,.4-4,1.5-.9,1.3-1.4,2.9-1.2,4.5-.1,2.1.3,4.1,1.4,5.9.9,1.3,3.4,2.9,7.6,4.8,12,5.4,19.6,9.8,22.7,13.2,3.1,3.5,4.7,9,4.7,16.7s-.9,9.7-2.6,12.3-5.1,4.9-10,6.7c-5.6,1.9-11.4,2.8-17.3,2.7-7.2,0-13.4-1-18.5-3.1s-8.4-4.7-10-7.9-2.4-7.7-2.4-13.6v-5.1h23.9v9.5c0,2.9.5,5,1.3,5.7,1.2.9,2.6,1.3,4.1,1.2,1.8,0,3.7-.5,4.6-1.6,1-1.4,1.4-3.1,1.3-4.7,0-4.6-.8-7.6-2.5-9s-5.9-3.8-12.6-7.2c-4.6-2.2-9-4.6-13.3-7.3-2.3-1.6-4.1-3.8-5.4-6.3-1.5-3.2-2.3-6.7-2.1-10.2,0-6,1-10.4,3-13.2s5.3-4.9,9.8-6.5c5.3-1.7,10.8-2.5,16.4-2.3,6.1,0,12.1.7,17.9,2.6,4.9,1.7,8.2,3.9,9.8,6.4,1.6,2.6,2.4,7,2.5,13.2v3.1h-.2Z"/>
  <path class="st0" d="M569.1,29.2h-23.9v-5.8c0-2.7-.4-4.4-1-5.1s-2-1.2-4-1.2c-1.5,0-3,.4-4,1.5-.9,1.3-1.4,2.9-1.2,4.5,0,2.1.3,4.1,1.4,5.9.9,1.3,3.4,2.9,7.6,4.8,12,5.4,19.6,9.8,22.7,13.2,3.1,3.5,4.7,9,4.7,16.7s-.9,9.7-2.6,12.3-5.1,4.9-10,6.7c-5.6,1.9-11.4,2.8-17.3,2.7-7.2,0-13.4-1-18.5-3.1s-8.4-4.7-10-7.9-2.4-7.7-2.4-13.6v-5.1h23.9v9.5c0,2.9.5,5,1.3,5.7,1.2.9,2.6,1.3,4.1,1.2,1.8,0,3.7-.5,4.5-1.6,1-1.4,1.4-3.1,1.3-4.7,0-4.6-.8-7.6-2.5-9s-5.9-3.8-12.6-7.1c-4.6-2.2-9-4.6-13.3-7.3-2.3-1.7-4.1-3.8-5.4-6.4-1.5-3.2-2.3-6.7-2.1-10.2,0-6,1-10.4,3-13.2,2-2.8,5.3-4.9,9.8-6.5,5.3-1.7,10.9-2.5,16.5-2.3,6.1,0,12.1.7,17.9,2.6,4.9,1.7,8.2,3.9,9.8,6.4,1.6,2.6,2.4,7,2.3,13.2v3.1h0Z"/>
  <path class="st0" d="M258.7,5.5h27.1c7.3,0,13,.4,16.9,1.3,4,.9,6.9,2.1,8.9,3.8,1.9,1.6,3.3,3.6,4,6,.7,2.3,1,6,1,10.9v6.8c0,5-.7,8.6-2,10.9s-3.8,4-7.5,5.3c-4.6,1.4-9.5,2-14.3,1.8h-7.2v31.5h-26.9V5.5h0ZM285.6,18.9v19.9h4.2c2.5,0,4.2-.5,5.1-1.4,1-.9,1.4-2.8,1.4-5.7v-6.4c0-2.7-.6-4.4-1.7-5.2-1-.8-3.1-1.2-6.3-1.2h-2.9.2Z"/>
  <path class="st0" d="M382.3,51.3c.1,5.6-.1,11.2-.7,16.8-.5,3.4-2.2,6.6-4.6,9s-6.5,5.1-10.5,6.2c-5,1.5-10.2,2.2-15.4,2.1-5.1,0-10.1-.6-15-2.1-4-1.1-7.7-3.3-10.6-6.2-2.5-2.4-4.2-5.5-4.8-8.9-.6-5.6-.9-11.3-.8-16.9v-13.4c-.1-5.6.1-11.2.7-16.7.5-3.4,2.2-6.6,4.6-9,2.9-2.9,6.5-5.1,10.5-6.2,5-1.5,10.2-2.3,15.4-2.2,5.1,0,10.1.6,15,2.1,4,1.1,7.7,3.3,10.6,6.2,2.5,2.4,4.2,5.5,4.8,8.9.5,3.2.8,8.9.8,16.9,0,0,0,13.4,0,13.4ZM356.4,25.6c0-3.7-.3-6-.8-7s-2.4-1.5-4.4-1.5-3.6.4-4.3,1.2-1.1,3.2-1.1,7.3v36.6c0,4.5.2,7.4.7,8.4s2.3,1.6,4.5,1.6,4.1-.6,4.6-1.8.8-4.1.8-8.8V25.6h0Z"/>
  <path class="st0" d="M386.1,5.5h19c12.7,0,21.3.4,25.8,1.1,4.2.6,8.1,2.6,11,5.7,2.8,3,4.2,7.9,4.2,14.6s-1,10.2-3,12.3c-2,2.1-5.9,3.3-11.8,3.8,5.3,1,8.9,2.3,10.8,4,1.5,1.2,2.7,2.8,3.4,4.6.5,1.4.7,5.3.7,11.6v20.7h-22.8v-26c0-4.2-.4-6.8-1.3-7.8s-3.1-1.5-6.7-1.5h-2.4v35.3h-26.9V5.6h0ZM413,18.9v17.4h2.4c2.9,0,5-.3,6.1-.9s1.8-2.7,1.8-6.1v-4.3c0-2.5-.6-4.1-1.8-4.9-1.1-.7-3.1-1.1-5.9-1.1h-2.7.1Z"/>
  <path class="st0" d="M507.3,5.5v15.7h-16v62.6h-26.9V21.2h-15.9V5.5h58.9,0Z"/>
</svg>