<?xml version="1.0" encoding="UTF-8"?>
<svg id="Lager_1" xmlns="http://www.w3.org/2000/svg" version="1.1" viewBox="0 0 170.08 33.72">
  <!-- Generator: Adobe Illustrator 30.2.1, SVG Export Plug-In . SVG Version: 2.1.1 Build 1)  -->
  <defs>
    <style>
      .st0 {
        fill: #fff;
      }
    </style>
  </defs>
  <path class="st0" d="M154.8,18.19c.95-3.94,2.65-5.39,5.14-5.39,2.78,0,3.4,1.62,2.82,5.39h-7.95ZM156.67,33.72c3.81,0,7.62-1.49,10.65-4.81l-3.07-3.69c-1.57,1.86-4.1,2.73-6.59,2.73-3.36,0-4.06-2.36-3.56-5.55h15.2l.46-2.49c1.41-7.62-1.86-12.22-9.07-12.22-7.58,0-12.47,4.47-13.96,12.88-1.62,9.03,2.36,13.13,9.94,13.13ZM103.52,33.14h7.46l2.9-16.53c1.24-1.86,2.65-3.11,5.01-3.11,2.2,0,3.19,1.24,2.53,4.93l-2.61,14.71h7.46l2.98-17.11c1.08-1.62,2.73-2.53,4.23-2.53,2.61,0,3.69.99,2.82,5.97l-2.4,13.67h7.46l2.78-16.07c1.28-7.08-2.2-9.36-6.88-9.36-3.44,0-5.8,1.49-7.99,4.18-.58-2.49-3.15-4.18-6.38-4.18-4.39,0-6.75,1.99-8.62,4.76h-.29l.75-4.18h-6.79l-4.39,24.85ZM88.78,27.67c-3.19,0-4.39-1.91-3.48-7.04.79-4.35,2.69-6.63,5.88-6.63s4.27,2.24,3.48,6.63c-.91,5.14-2.69,7.04-5.88,7.04ZM87.87,33.72c7.91,0,12.72-4.1,14.29-13.17,1.45-8.41-2.15-12.84-10.07-12.84s-12.8,4.43-14.29,12.84c-1.62,9.07,2.07,13.17,10.07,13.17ZM57.63,33.14h7.46l2.4-13.59c.5-2.82,2.24-4.06,4.89-4.06,1.12,0,2.4.12,3.77.54l2.57-8.04c-.91-.17-1.66-.29-3.19-.29-2.73,0-5.84,1.91-7.46,5.68h-.33l1.08-5.1h-6.79l-4.39,24.85ZM41.22,18.19c.95-3.94,2.65-5.39,5.14-5.39,2.78,0,3.4,1.62,2.82,5.39h-7.95ZM43.09,33.72c3.81,0,7.62-1.49,10.65-4.81l-3.07-3.69c-1.57,1.86-4.1,2.73-6.59,2.73-3.36,0-4.06-2.36-3.56-5.55h15.2l.46-2.49c1.41-7.62-1.86-12.22-9.07-12.22-7.58,0-12.47,4.47-13.96,12.88-1.62,9.03,2.36,13.13,9.94,13.13ZM8.66,26.26l3.44-19.43h5.01c5.39,0,7.99,2.44,6.71,9.57-1.53,8.45-4.81,9.86-10.15,9.86h-5.01ZM0,33.14h14c10.44,0,15-4.93,17.07-16.69C32.97,5.51,27.71,0,17.27,0H5.84L0,33.14Z"/>
</svg>