<?xml version="1.0" encoding="UTF-8"?>
<svg id="Lager_1" xmlns="http://www.w3.org/2000/svg" version="1.1" viewBox="0 0 164.06 33.59">
  <!-- Generator: Adobe Illustrator 30.2.1, SVG Export Plug-In . SVG Version: 2.1.1 Build 1)  -->
  <defs>
    <style>
      .st0 {
        fill: #7fba4c;
      }
    </style>
  </defs>
  <path class="st0" d="M14.88,3.57l2.41.83c2.47.85,4.23,2.94,4.52,5.56l-4.01,1.37c-.48-2.17-1.97-3.58-4.13-3.78-1.99-.18-4.58.25-5.03,2.39-.22,1.02-.08,2.11.74,2.73,2.66,1.99,5.93,1.19,9.69,3.35,2.25,1.29,3.52,3.45,3.61,6.01.11,3.4-1.79,6.31-5.02,7.58-5.28,2.06-13.05.51-14.4-5.89l4.15-1.65c.52,1.84,1.39,3.27,3.06,3.96s3.61.67,5.28.02,2.32-2.12,2.21-3.73c-.22-3.21-4.47-3.62-7.22-4.22-2.18-.48-4.28-1.41-5.6-3.23-1.43-1.97-1.57-4.49-.51-6.88.77-1.73,2.57-3.27,4.77-3.89.47-.13.94-.29,1.26-.52h4.23Z"/>
  <path class="st0" d="M89.05,3.57c.36.39,1.73.23,2.57,1.11l-.74,2.99c-1.3-.68-2.73-1.01-3.8-.02-.74.68-.72,1.92-.63,2.83l4.19.04-.41,3.4-3.83.04v16.09s-4.64,0-4.64,0V13.98s-2.58-.06-2.58-.06v-3.37s2.53-.1,2.53-.1c.17-4.17.88-5.37,4.32-6.88h3.02Z"/>
  <path class="st0" d="M42.93,30.03l-4.64.04-.05-13.25c0-1.3-.85-2.55-1.79-2.92-1.3-.52-2.72-.37-3.68.65-.82.87-1.4,2.17-1.4,3.44l-.03,12.06h-4.61s0-26.1,0-26.1h4.6s.05,8.77.05,8.77c1.58-1.87,3.41-2.72,5.69-2.54s4.3,1.46,5.18,3.69c.38,1.15.67,2.44.67,3.71v12.44Z"/>
  <path class="st0" d="M58.4,26.53c1.26-.58,1.89-1.57,2.21-2.86l3.86,1.39c-1.2,4.48-5.55,5.86-9.76,5.26-3.33-.47-6-2.58-7.14-5.75-1.01-2.81-.99-5.9.07-8.68,1.47-3.86,5.09-6,9.18-5.71,6.11.44,8.8,5.98,7.94,11.56l-13.06.02c.03,1.54.44,3.1,1.6,4.16,1.33,1.22,3.44,1.37,5.11.61ZM60.32,18.67c-.02-1.81-.55-2.96-1.56-4.05-1.58-1.37-4.12-1.39-5.59.19-.96,1.04-1.38,2.38-1.49,3.87h8.64Z"/>
  <path class="st0" d="M76.87,26.56v3.39c-1.22.36-2.28.52-3.56.48-2.28-.07-4.26-1.76-4.26-4.21l-.03-22.26h4.64s0,21.45,0,21.45c0,.58.49,1.31,1.08,1.27l2.14-.12Z"/>
  <path class="st0" d="M102.68,26.54l.04,3.36c-1.42.5-2.91.7-4.5.38-1.77-.35-3.31-1.93-3.32-3.91l-.04-22.42,4.62-.02v21.46c.01.59.48,1.23,1.04,1.27.7.05,1.03,0,2.17-.12Z"/>
  <g>
    <path class="st0" d="M160.4,22.85v2.9c-.85,1.82-2,3.34-4.03,4.06-4.34,1.54-10.43.42-11.56-4.78l3.52-1.17c.7,3.02,3.81,3.7,6.15,2.92,1.07-.35,1.69-1.23,1.65-2.25-.15-3.87-7.07-1.55-9.97-5.39-2.01-2.66-.87-6.45,2.09-7.98,3.87-2,10.37-1.04,11.4,3.84l-3.45,1.07c-.74-2.65-3.95-2.95-5.81-2.02-.7.35-1.09,1.11-1.06,1.82.16,3.72,8.81.63,11.06,6.99Z"/>
    <path class="st0" d="M114.37,26.96c2.28.17,4.23-.9,4.76-3.27l3.87,1.35c-1.16,4.51-5.67,5.9-9.84,5.26-3.31-.5-5.96-2.63-7.07-5.79-.99-2.82-.96-5.94.12-8.7,1.45-3.72,4.91-5.82,8.88-5.65,6.27.28,9.1,5.92,8.21,11.58h-13.1c.18,2.67,1.24,4.99,4.19,5.21ZM118.82,18.68c.02-1.58-.41-2.94-1.49-3.98-1.54-1.49-4.19-1.47-5.65.13-.97,1.07-1.42,2.49-1.44,3.85h8.58Z"/>
    <path class="st0" d="M141.82,25.62c-.94,4.26-6.22,5.45-10.32,4.47-2.58-.62-4.57-2.44-5.13-5.06l3.51-1.18c.75,2.98,3.68,3.69,6.11,2.94,1.04-.32,1.67-1.16,1.69-2.1.11-4.11-7.11-1.67-10-5.61-2.03-2.77-.73-6.63,2.38-8.07,3.89-1.8,10.13-.82,11.15,3.98l-3.46,1.07c-.73-2.63-3.83-2.92-5.71-2.06-.78.35-1.19,1.11-1.15,1.9.15,3.08,6.33,1.41,9.63,4.63,1.35,1.32,1.72,3.21,1.3,5.1Z"/>
  </g>
</svg>