<?xml version="1.0" encoding="UTF-8"?>
<svg id="Lager_1" xmlns="http://www.w3.org/2000/svg" version="1.1" viewBox="0 0 595.3 379.3">
  <!-- Generator: Adobe Illustrator 30.2.1, SVG Export Plug-In . SVG Version: 2.1.1 Build 1)  -->
  <defs>
    <style>
      .st0 {
        fill: #010101;
      }
    </style>
  </defs>
  <circle class="st0" cx="34.1" cy="31.6" r="31.6"/>
  <g>
    <path class="st0" d="M241.2,240.5c10.1,8.2,26.4,5.1,32-7.1h8.4c-2.6,7.4-7.6,12.9-14.3,16.2-7.9,3.6-16.8,3.8-24.9.4s-15.9-13-17.1-23.3c-1.1-9.2,2-18.2,8.4-24.6s15.7-9.4,24.9-8.2c15.5,2,25.8,15.5,24.5,31.2h-49.5c.4,6,3.1,11.5,7.8,15.3h0ZM233.8,218.1h40.8c-1-5.3-3.6-10-8-13.2-6.8-5-16-5.3-23.2-.9-5,3.1-8.3,8.1-9.6,14.1h0Z"/>
    <path class="st0" d="M149.9,211.7c-4.3,7.2-4.1,16.2.4,23.2s12.8,10.8,21.4,9.4,14.4-7.1,16.6-15h8.2c-3.2,14.9-16.8,24.6-31.8,23-14.3-1.5-25.1-12.7-26.2-26.8-1.4-17,11.4-31.1,28.4-31.7,14-.6,26.5,8.5,29.6,22.6h-8.4c-2.5-8.5-9.7-14.3-18.5-14.7s-15.4,3.2-19.6,10.2h0Z"/>
    <path class="st0" d="M115.2,251.9c-8.8,1.4-20.5,0-26-7.9s-3.1-6.8-3.3-10.8h8.7c0,5.4,2.9,9.8,7.9,11.3,4.7,1.5,10,1.4,14.5-.4s5.8-4.8,5.7-8.7c-.2-5.5-4.6-7.5-9.4-8.7l-12.2-2.9c-2.5-.6-4.7-1.6-6.8-2.8-3.7-2.2-5.8-5.8-6.2-10.1s1.5-9.8,5.6-12.8c6.9-5.1,17.4-5.5,25.3-2.8,6.8,2.4,10.9,8.4,11.1,15.7h-8.5c0-4.5-2.3-8.2-6.5-9.6s-9.7-1.4-14,.7-3.8,2.9-4.3,4.9-.1,5.2,1.7,6.9,4.1,2.5,6.3,3.1l12,2.8c7.9,1.8,14.3,6,14.4,14.8s-6.8,16-16,17.4h0Z"/>
    <path class="st0" d="M319.4,201.4c-10.6-.6-17.5,7.6-17.5,17.2v32.5h-8.4v-56h8v8.9c4.7-7.2,12.3-10.9,20.7-10.1,8.4.7,11.1,2.8,14.7,7.4,2.8,3.6,4.5,8,4.6,12.7v37.2c.1,0-8.2,0-8.2,0v-34.8c0-3.3-1-6.6-2.8-9.2s-6.5-5.4-11-5.7h-.1Z"/>
    <rect class="st0" x="206.4" y="193.6" width="8.5" height="57.4"/>
    <g>
      <path class="st0" d="M426.9,225.2c.9,12.5,11.2,21.3,23.8,19.7s13-5,16-11.5h8.4c-3.7,11.1-13.4,17.9-24.6,18.9-16.2,1.4-30-9.8-31.8-26-1-9,2.1-17.9,8.4-24.1,6.5-6.5,15.5-9.3,24.6-8.2,15.6,1.9,26,15.3,24.8,31.3h-49.6ZM427.2,218.1h40.8c-1-5.3-3.6-10-7.9-13.1-6.7-5-15.9-5.4-23-1.1s-8.7,8.3-10,14.3h0Z"/>
      <path class="st0" d="M359.8,224.9c.9,10.4,8.7,18.4,18.6,19.5,10.4,1.2,19.8-5,22.9-15.2h8.2c-3.2,15.1-17,24.8-32.2,22.9-14-1.7-24.7-12.7-25.8-26.8-1.4-16.8,11.1-30.9,27.9-31.8s26.9,8.4,30,22.6h-8.5c-2.4-8.2-9.1-13.7-17.3-14.6s-12.8,1.4-17.4,5.8-6.9,10.7-6.3,17.4h0Z"/>
    </g>
  </g>
  <g>
    <path class="st0" d="M101.4,375.4h-8.4v-79.4h8c0,0,.1,11.1.1,11.1,5.1-7.9,13.3-12.3,22.7-12.5,11.8-.2,22.3,6.8,26.6,17.8s2.8,15.7,0,23.2c-4.2,10.4-13.8,17.2-25,17.8s-18.6-3.9-23.9-12.1v34.3h0ZM144,323.8c0-11.9-9.6-21.6-21.6-21.6s-21.6,9.6-21.6,21.6,9.6,21.6,21.6,21.6,21.6-9.6,21.6-21.6Z"/>
    <path class="st0" d="M160.9,336.6c.2-5,2.5-9.3,6.6-12,2.8-1.8,5.8-3.3,9.2-4.1l22.3-5.4c.5-5.4-2.5-10.3-7.6-12.2s-8.5-1.5-12.7,0c-4.6,1.7-7.7,5.6-8.4,10.4h-8.1c.9-8.1,6.4-14.7,14.1-17.4,6-2.1,12.7-1.9,18.7.2s12.2,10.2,12.2,18.2v37.4h-7.9v-9.3c-4.1,5.9-9.6,9.5-16.5,10.4s-9.8,0-14.1-2.4-8-8-7.8-14h0ZM193.8,340.5c3.3-3.6,5.2-7.9,5.2-12.7v-5.8l-19.6,4.7c-2.2.5-4.2,1.5-6,2.6-3,1.9-4.5,4.9-4.2,8.4s2.2,6,5.3,7.2c6.7,2.6,14.3,1,19.3-4.4h0Z"/>
    <polygon class="st0" points="278.1 321.1 307.5 351.7 296.7 351.9 269.1 323.3 269 351.9 260.7 351.8 260.7 269.6 269 269.5 269.1 320 293.3 295.9 303.6 296 278.1 321.1"/>
    <path class="st0" d="M228.9,351.8h-8.4v-55.9h8v11.2c1.9-3,3.6-5.5,6.2-7.7,4.7-3.7,10.6-5.2,16.5-3.9v7.6c-2.3,0-4.4-.2-6.6,0-10,.9-15.7,9.7-15.7,19.4v29.2h0Z"/>
  </g>
  <g>
    <path class="st0" d="M591.9,113.9v38h-8.2v-34.7c0-2.1-.5-4.1-1.1-6-1.8-5.2-6.3-8.4-11.7-8.8s-12.1,2.2-15.1,7.8c-1.4,2.6-2.4,5.5-2.4,8.5v33.2h-8.4v-34.5c0-8-4.5-14.3-12.7-15.2s-17.7,7.4-17.7,17.2v32.4h-8.3v-56h8v8.9c4.7-7.6,12.5-11.1,20.9-10.1,7.2.8,13.3,4.7,16.3,11.7,3.9-7.6,11.3-11.9,19.7-11.8s9.2,1.2,13.2,4.2c4.2,3.7,7.7,9.3,7.7,15.2h0Z"/>
    <path class="st0" d="M349.5,136.5c.2-5.2,2.6-9.3,6.8-12,2.8-1.8,5.9-3.2,9.3-4l21.9-5.3c.5-5.4-2.5-10.3-7.5-12.2s-8.4-1.5-12.4-.2c-4.7,1.7-8,5.5-8.8,10.6h-8.1c.9-8.2,6.6-14.9,14.5-17.4,5.8-1.9,12.2-1.8,18,.2s12.5,10.3,12.5,18.6v37.2h-7.9v-9.5c-4.1,6.4-10.6,10.3-18.2,10.8s-8.5-.5-12.2-2.5c-5.2-2.9-8.2-8.1-7.9-14.3v.2ZM378.4,143.8c5.6-3.4,8.8-9.3,9.2-15.7.3-6.4,0-3.9,0-6l-19,4.5c-5.7,1.4-11.3,4.5-10.8,10.9.5,6.4,2.2,6.2,5.5,7.4,4.9,1.8,10.5,1.5,15.2-1.3h0Z"/>
    <path class="st0" d="M142.5,102.4c-4.5-.6-8.8.1-12.4,2.8s-6.6,7.7-6.7,12.9v33.7h-8.5v-56h8v8.9c4.5-7,11.9-10.7,20.1-10.2s10.8,2.3,14.6,6.5c3.7,4.1,5.5,9.3,5.5,14.9v35.9h-8.4v-33.2c0-8-3.5-15.1-12.2-16.2h0Z"/>
    <path class="st0" d="M203,102.4c-5.3-.7-10.4.7-14,4.5s-4.9,7.3-4.9,11.8v33.3h-8.4v-56h8v8.9c5.8-9.2,16.3-12.2,26.2-9.1,9.2,2.9,13.9,11.2,13.9,20.6v35.6h-8.4v-34.2c0-7.7-4.1-14.3-12.4-15.4h0Z"/>
    <path class="st0" d="M485.4,95.9h8.4c0,0,0,56,0,56h-8v-9.2c-4.4,7.6-12.3,11.4-20.9,10.4-7.4-.9-13.7-5.2-16.4-12.2-1.1-2.8-1.8-5.8-1.8-9v-36h8.4v34.7c0,2.5.7,4.9,1.7,7.1,2,4.7,6.3,7.5,11.4,7.9,5.9.4,11.4-2,14.4-7.1,1.8-2.9,2.8-6.2,2.8-9.8v-32.7h0Z"/>
    <path class="st0" d="M438.5,150.2c-4.4,3.5-11.7,3.6-16.8,2.1-7.7-2.4-9.9-10.1-9.9-17.3v-31.6h-9.6v-7.4h9.6v-17.9l8.4-2v19.8h15.8v7.5h-15.8v30.5c0,4.1.7,9.5,5,11s9.1.8,13.1-2.1v7.4c.1,0,.1,0,.1,0Z"/>
    <polygon class="st0" points="338.4 96 347.1 95.9 325.4 151.9 316 151.9 294.3 96 303.1 95.9 320.8 142 338.4 96"/>
    <rect class="st0" x="93.1" y="94.6" width="8.5" height="57.4"/>
    <path class="st0" d="M292.8,123.9c0,16.3-13.3,29.6-29.6,29.6s-29.6-13.3-29.6-29.6,13.3-29.6,29.6-29.6,29.6,13.3,29.6,29.6ZM284.7,123.9c0-11.9-9.6-21.5-21.5-21.5s-21.5,9.6-21.5,21.5,9.6,21.5,21.5,21.5,21.5-9.6,21.5-21.5Z"/>
  </g>
</svg>